<svg width="1920" height="1523" viewBox="0 0 1920 1523" fill="none" xmlns="http://www.w3.org/2000/svg">
<path d="M189.57 627.042C202.211 628.227 212.778 632.054 221.27 638.525C229.762 644.995 235.549 653.98 238.63 665.478C243.202 682.54 239.707 697.689 228.147 710.924C216.537 723.974 197.379 734.076 170.673 741.232L61.0672 770.601L8.88923 575.87L112.931 547.992C138.895 541.035 159.703 540.429 175.355 546.174C191.193 551.869 201.174 562.413 205.299 577.806C207.734 586.893 207.602 595.674 204.903 604.15C202.391 612.575 197.279 620.206 189.57 627.042ZM85.7276 604.478L93.4798 633.409L124.08 625.21C138.361 621.383 144.209 614.648 141.625 605.004C139.041 595.361 130.608 592.452 116.328 596.278L85.7276 604.478ZM152.81 696.822C167.276 692.946 173.142 685.908 170.409 675.708C167.676 665.508 159.076 662.346 144.61 666.222L105.108 676.806L113.307 707.407L152.81 696.822ZM424.864 620.049L438.132 669.567L276.227 712.949L224.049 518.218L382.337 475.805L395.606 525.322L301.857 550.442L307.969 573.254L390.312 551.19L402.984 598.481L320.641 620.545L327.498 646.138L424.864 620.049ZM537.205 647.791C521.07 652.114 504.834 654.576 488.497 655.177C472.295 655.543 458.46 653.982 446.991 650.496L455.312 596.983C466.026 599.876 477.58 601.452 489.973 601.709C502.316 601.781 513.773 600.401 524.344 597.568C533.431 595.133 539.699 592.559 543.146 589.847C546.544 586.948 547.771 583.738 546.826 580.214C545.733 576.134 542.317 573.769 536.577 573.121C531.023 572.422 522.082 572.433 509.752 573.153C493.885 574.025 480.472 574.041 469.513 573.201C458.504 572.175 448.198 568.576 438.593 562.404C428.938 556.046 422.223 545.82 418.446 531.725C415.166 519.485 415.616 507.438 419.794 495.584C423.973 483.731 432.061 473.116 444.059 463.739C456.242 454.313 472.071 446.991 491.544 441.773C504.897 438.195 518.369 436.175 531.961 435.714C545.688 435.017 558.212 436.134 569.532 439.064L562.527 491.926C540.841 487.401 521.466 487.424 504.404 491.995C487.528 496.518 480.183 502.859 482.369 511.019C483.413 514.913 486.711 517.21 492.265 517.908C497.77 518.421 506.569 518.25 518.664 517.394C534.246 516.201 547.634 516.092 558.828 517.068C569.972 517.858 580.347 521.34 589.952 527.512C599.742 533.635 606.526 543.744 610.302 557.839C613.582 570.079 613.133 582.126 608.954 593.979C604.726 605.647 596.545 616.287 584.411 625.899C572.413 635.276 556.678 642.573 537.205 647.791ZM647.268 459.38L590.239 474.661L576.599 423.753L756.307 375.6L769.948 426.508L712.92 441.789L751.457 585.611L685.805 603.203L647.268 459.38ZM899.336 550.758C883.202 555.081 866.966 557.543 850.628 558.144C834.427 558.51 820.592 556.949 809.123 553.463L817.444 499.95C828.158 502.844 839.711 504.419 852.104 504.676C864.447 504.748 875.905 503.368 886.476 500.535C895.563 498.1 901.83 495.526 905.278 492.814C908.675 489.916 909.902 486.705 908.958 483.181C907.865 479.101 904.448 476.737 898.709 476.088C893.155 475.39 884.213 475.4 871.883 476.12C856.016 476.992 842.604 477.008 831.645 476.168C820.636 475.142 810.329 471.543 800.725 465.371C791.07 459.013 784.354 448.787 780.578 434.692C777.298 422.452 777.747 410.405 781.926 398.552C786.104 386.698 794.193 376.083 806.191 366.706C818.374 357.28 834.202 349.958 853.675 344.74C867.028 341.162 880.5 339.142 894.092 338.681C907.82 337.984 920.343 339.101 931.663 342.031L924.658 394.893C902.972 390.368 883.598 390.391 866.536 394.963C849.659 399.485 842.314 405.826 844.501 413.986C845.544 417.881 848.843 420.177 854.397 420.875C859.901 421.388 868.701 421.217 880.796 420.361C896.378 419.168 909.766 419.059 920.96 420.035C932.104 420.826 942.479 424.307 952.083 430.48C961.874 436.602 968.657 446.711 972.434 460.806C975.714 473.046 975.264 485.093 971.086 496.946C966.858 508.614 958.677 519.254 946.543 528.866C934.545 538.243 918.809 545.54 899.336 550.758ZM1157.01 423.873L1170.27 473.39L1008.37 516.772L956.191 322.042L1114.48 279.628L1127.75 329.146L1034 354.265L1040.11 377.077L1122.45 355.013L1135.13 402.305L1052.78 424.369L1059.64 449.962L1157.01 423.873ZM1143.37 271.887L1209.02 254.296L1247.56 398.118L1335.47 374.564L1349.11 425.472L1195.55 466.618L1143.37 271.887ZM1515.88 327.713L1529.14 377.231L1367.24 420.613L1315.06 225.882L1473.35 183.469L1486.62 232.986L1392.87 258.106L1398.98 280.917L1481.33 258.854L1494 306.145L1411.65 328.209L1418.51 353.802L1515.88 327.713ZM1624.76 299.136L1606.95 303.906L1620.07 352.867L1554.42 370.459L1502.24 175.728L1595.99 150.608C1613.98 145.788 1630.45 144.556 1645.39 146.913C1660.33 149.269 1672.91 155.042 1683.12 164.232C1693.34 173.421 1700.43 185.434 1704.41 200.271C1708.14 214.18 1708.24 227.173 1704.72 239.248C1701.19 251.323 1694.32 262.011 1684.09 271.311L1741.08 320.442L1670.98 339.226L1624.76 299.136ZM1638.2 218.011C1636.26 210.779 1632.55 205.811 1627.05 203.109C1621.51 200.222 1614.29 199.971 1605.38 202.356L1581.46 208.766L1593.68 254.389L1617.61 247.979C1626.51 245.593 1632.66 241.857 1636.07 236.77C1639.43 231.497 1640.14 225.244 1638.2 218.011ZM1835.5 299.914C1819.36 304.237 1803.13 306.699 1786.79 307.3C1770.59 307.666 1756.75 306.105 1745.29 302.619L1753.61 249.106C1764.32 251.999 1775.87 253.575 1788.27 253.832C1800.61 253.904 1812.07 252.523 1822.64 249.691C1831.73 247.256 1837.99 244.682 1841.44 241.97C1844.84 239.071 1846.07 235.86 1845.12 232.337C1844.03 228.257 1840.61 225.892 1834.87 225.244C1829.32 224.545 1820.38 224.556 1808.05 225.276C1792.18 226.148 1778.77 226.164 1767.81 225.324C1756.8 224.298 1746.49 220.699 1736.89 214.527C1727.23 208.169 1720.52 197.943 1716.74 183.848C1713.46 171.608 1713.91 159.561 1718.09 147.707C1722.27 135.854 1730.36 125.239 1742.35 115.862C1754.54 106.436 1770.37 99.1135 1789.84 93.8957C1803.19 90.3178 1816.66 88.2981 1830.26 87.8366C1843.98 87.1399 1856.51 88.2566 1867.83 91.1866L1860.82 144.049C1839.14 139.523 1819.76 139.547 1802.7 144.118C1785.82 148.641 1778.48 154.982 1780.66 163.142C1781.71 167.036 1785.01 169.333 1790.56 170.031C1796.06 170.544 1804.86 170.373 1816.96 169.517C1832.54 168.324 1845.93 168.215 1857.12 169.191C1868.27 169.981 1878.64 173.463 1888.25 179.635C1898.04 185.758 1904.82 195.867 1908.6 209.962C1911.88 222.202 1911.43 234.249 1907.25 246.102C1903.02 257.77 1894.84 268.41 1882.71 278.022C1870.71 287.399 1854.97 294.696 1835.5 299.914Z" fill="#2A2A2A"/>
<path d="M189.57 966.042C202.211 967.227 212.778 971.054 221.27 977.525C229.762 983.995 235.549 992.98 238.63 1004.48C243.202 1021.54 239.707 1036.69 228.147 1049.92C216.537 1062.97 197.379 1073.08 170.673 1080.23L61.0672 1109.6L8.88923 914.87L112.931 886.992C138.895 880.035 159.703 879.429 175.355 885.174C191.193 890.869 201.174 901.413 205.299 916.806C207.734 925.893 207.602 934.674 204.903 943.15C202.391 951.575 197.279 959.206 189.57 966.042ZM85.7276 943.478L93.4798 972.409L124.08 964.21C138.361 960.383 144.209 953.648 141.625 944.004C139.041 934.361 130.608 931.452 116.328 935.278L85.7276 943.478ZM152.81 1035.82C167.276 1031.95 173.142 1024.91 170.409 1014.71C167.676 1004.51 159.076 1001.35 144.61 1005.22L105.108 1015.81L113.307 1046.41L152.81 1035.82ZM424.864 959.049L438.132 1008.57L276.227 1051.95L224.049 857.218L382.337 814.805L395.606 864.322L301.857 889.442L307.969 912.254L390.312 890.19L402.984 937.481L320.641 959.545L327.498 985.138L424.864 959.049ZM537.205 986.791C521.07 991.114 504.834 993.576 488.497 994.177C472.295 994.543 458.46 992.982 446.991 989.496L455.312 935.983C466.026 938.876 477.58 940.452 489.973 940.709C502.316 940.781 513.773 939.401 524.344 936.568C533.431 934.133 539.699 931.559 543.146 928.847C546.544 925.948 547.771 922.738 546.826 919.214C545.733 915.134 542.317 912.769 536.577 912.121C531.023 911.422 522.082 911.433 509.752 912.153C493.885 913.025 480.472 913.041 469.513 912.201C458.504 911.175 448.198 907.576 438.593 901.404C428.938 895.046 422.223 884.82 418.446 870.725C415.166 858.485 415.616 846.438 419.794 834.584C423.973 822.731 432.061 812.116 444.059 802.739C456.242 793.313 472.071 785.991 491.544 780.773C504.897 777.195 518.369 775.175 531.961 774.714C545.688 774.017 558.212 775.134 569.532 778.064L562.527 830.926C540.841 826.401 521.466 826.424 504.404 830.995C487.528 835.518 480.183 841.859 482.369 850.019C483.413 853.913 486.711 856.21 492.265 856.908C497.77 857.421 506.569 857.25 518.664 856.394C534.246 855.201 547.634 855.092 558.828 856.068C569.972 856.858 580.347 860.34 589.952 866.512C599.742 872.635 606.526 882.744 610.302 896.839C613.582 909.079 613.133 921.126 608.954 932.979C604.726 944.647 596.545 955.287 584.411 964.899C572.413 974.276 556.678 981.573 537.205 986.791ZM647.268 798.38L590.239 813.661L576.599 762.753L756.307 714.6L769.948 765.508L712.92 780.789L751.457 924.611L685.805 942.203L647.268 798.38ZM899.336 889.758C883.202 894.081 866.966 896.543 850.628 897.144C834.427 897.51 820.592 895.949 809.123 892.463L817.444 838.95C828.158 841.844 839.711 843.419 852.104 843.676C864.447 843.748 875.905 842.368 886.476 839.535C895.563 837.1 901.83 834.526 905.278 831.814C908.675 828.916 909.902 825.705 908.958 822.181C907.865 818.101 904.448 815.737 898.709 815.088C893.155 814.39 884.213 814.4 871.883 815.12C856.016 815.992 842.604 816.008 831.645 815.168C820.636 814.142 810.329 810.543 800.725 804.371C791.07 798.013 784.354 787.787 780.578 773.692C777.298 761.452 777.747 749.405 781.926 737.552C786.104 725.698 794.193 715.083 806.191 705.706C818.374 696.28 834.202 688.958 853.675 683.74C867.028 680.162 880.5 678.142 894.092 677.681C907.82 676.984 920.343 678.101 931.663 681.031L924.658 733.893C902.972 729.368 883.598 729.391 866.536 733.963C849.659 738.485 842.314 744.826 844.501 752.986C845.544 756.881 848.843 759.177 854.397 759.875C859.901 760.388 868.701 760.217 880.796 759.361C896.378 758.168 909.766 758.059 920.96 759.035C932.104 759.826 942.479 763.307 952.083 769.48C961.874 775.602 968.657 785.711 972.434 799.806C975.714 812.046 975.264 824.093 971.086 835.946C966.858 847.614 958.677 858.254 946.543 867.866C934.545 877.243 918.809 884.54 899.336 889.758ZM1157.01 762.873L1170.27 812.39L1008.37 855.772L956.191 661.042L1114.48 618.628L1127.75 668.146L1034 693.265L1040.11 716.077L1122.45 694.013L1135.13 741.305L1052.78 763.369L1059.64 788.962L1157.01 762.873ZM1143.37 610.887L1209.02 593.296L1247.56 737.118L1335.47 713.564L1349.11 764.472L1195.55 805.618L1143.37 610.887ZM1515.88 666.713L1529.14 716.231L1367.24 759.613L1315.06 564.882L1473.35 522.469L1486.62 571.986L1392.87 597.106L1398.98 619.917L1481.33 597.854L1494 645.145L1411.65 667.209L1418.51 692.802L1515.88 666.713ZM1624.76 638.136L1606.95 642.906L1620.07 691.867L1554.42 709.459L1502.24 514.728L1595.99 489.608C1613.98 484.788 1630.45 483.556 1645.39 485.913C1660.33 488.269 1672.91 494.042 1683.12 503.232C1693.34 512.421 1700.43 524.434 1704.41 539.271C1708.14 553.18 1708.24 566.173 1704.72 578.248C1701.19 590.323 1694.32 601.011 1684.09 610.311L1741.08 659.442L1670.98 678.226L1624.76 638.136ZM1638.2 557.011C1636.26 549.779 1632.55 544.811 1627.05 542.109C1621.51 539.222 1614.29 538.971 1605.38 541.356L1581.46 547.766L1593.68 593.389L1617.61 586.979C1626.51 584.593 1632.66 580.857 1636.07 575.77C1639.43 570.497 1640.14 564.244 1638.2 557.011ZM1835.5 638.914C1819.36 643.237 1803.13 645.699 1786.79 646.3C1770.59 646.666 1756.75 645.105 1745.29 641.619L1753.61 588.106C1764.32 590.999 1775.87 592.575 1788.27 592.832C1800.61 592.904 1812.07 591.523 1822.64 588.691C1831.73 586.256 1837.99 583.682 1841.44 580.97C1844.84 578.071 1846.07 574.86 1845.12 571.337C1844.03 567.257 1840.61 564.892 1834.87 564.244C1829.32 563.545 1820.38 563.556 1808.05 564.276C1792.18 565.148 1778.77 565.164 1767.81 564.324C1756.8 563.298 1746.49 559.699 1736.89 553.527C1727.23 547.169 1720.52 536.943 1716.74 522.848C1713.46 510.608 1713.91 498.561 1718.09 486.707C1722.27 474.854 1730.36 464.239 1742.35 454.862C1754.54 445.436 1770.37 438.114 1789.84 432.896C1803.19 429.318 1816.66 427.298 1830.26 426.837C1843.98 426.14 1856.51 427.257 1867.83 430.187L1860.82 483.049C1839.14 478.523 1819.76 478.547 1802.7 483.118C1785.82 487.641 1778.48 493.982 1780.66 502.142C1781.71 506.036 1785.01 508.333 1790.56 509.031C1796.06 509.544 1804.86 509.373 1816.96 508.517C1832.54 507.324 1845.93 507.215 1857.12 508.191C1868.27 508.981 1878.64 512.463 1888.25 518.635C1898.04 524.758 1904.82 534.867 1908.6 548.962C1911.88 561.202 1911.43 573.249 1907.25 585.102C1903.02 596.77 1894.84 607.41 1882.71 617.022C1870.71 626.399 1854.97 633.696 1835.5 638.914Z" fill="#2A2A2A"/>
<path d="M189.57 1305.04C202.211 1306.23 212.778 1310.05 221.27 1316.52C229.762 1323 235.549 1331.98 238.63 1343.48C243.202 1360.54 239.707 1375.69 228.147 1388.92C216.537 1401.97 197.379 1412.08 170.673 1419.23L61.0672 1448.6L8.88923 1253.87L112.931 1225.99C138.895 1219.03 159.703 1218.43 175.355 1224.17C191.193 1229.87 201.174 1240.41 205.299 1255.81C207.734 1264.89 207.602 1273.67 204.903 1282.15C202.391 1290.57 197.279 1298.21 189.57 1305.04ZM85.7276 1282.48L93.4798 1311.41L124.08 1303.21C138.361 1299.38 144.209 1292.65 141.625 1283C139.041 1273.36 130.608 1270.45 116.328 1274.28L85.7276 1282.48ZM152.81 1374.82C167.276 1370.95 173.142 1363.91 170.409 1353.71C167.676 1343.51 159.076 1340.35 144.61 1344.22L105.108 1354.81L113.307 1385.41L152.81 1374.82ZM424.864 1298.05L438.132 1347.57L276.227 1390.95L224.049 1196.22L382.337 1153.8L395.606 1203.32L301.857 1228.44L307.969 1251.25L390.312 1229.19L402.984 1276.48L320.641 1298.55L327.498 1324.14L424.864 1298.05ZM537.205 1325.79C521.07 1330.11 504.834 1332.58 488.497 1333.18C472.295 1333.54 458.46 1331.98 446.991 1328.5L455.312 1274.98C466.026 1277.88 477.58 1279.45 489.973 1279.71C502.316 1279.78 513.773 1278.4 524.344 1275.57C533.431 1273.13 539.699 1270.56 543.146 1267.85C546.544 1264.95 547.771 1261.74 546.826 1258.21C545.733 1254.13 542.317 1251.77 536.577 1251.12C531.023 1250.42 522.082 1250.43 509.752 1251.15C493.885 1252.03 480.472 1252.04 469.513 1251.2C458.504 1250.18 448.198 1246.58 438.593 1240.4C428.938 1234.05 422.223 1223.82 418.446 1209.72C415.166 1197.48 415.616 1185.44 419.794 1173.58C423.973 1161.73 432.061 1151.12 444.059 1141.74C456.242 1132.31 472.071 1124.99 491.544 1119.77C504.897 1116.19 518.369 1114.17 531.961 1113.71C545.688 1113.02 558.212 1114.13 569.532 1117.06L562.527 1169.93C540.841 1165.4 521.466 1165.42 504.404 1170C487.528 1174.52 480.183 1180.86 482.369 1189.02C483.413 1192.91 486.711 1195.21 492.265 1195.91C497.77 1196.42 506.569 1196.25 518.664 1195.39C534.246 1194.2 547.634 1194.09 558.828 1195.07C569.972 1195.86 580.347 1199.34 589.952 1205.51C599.742 1211.63 606.526 1221.74 610.302 1235.84C613.582 1248.08 613.133 1260.13 608.954 1271.98C604.726 1283.65 596.545 1294.29 584.411 1303.9C572.413 1313.28 556.678 1320.57 537.205 1325.79ZM647.268 1137.38L590.239 1152.66L576.599 1101.75L756.307 1053.6L769.948 1104.51L712.92 1119.79L751.457 1263.61L685.805 1281.2L647.268 1137.38ZM899.336 1228.76C883.202 1233.08 866.966 1235.54 850.628 1236.14C834.427 1236.51 820.592 1234.95 809.123 1231.46L817.444 1177.95C828.158 1180.84 839.711 1182.42 852.104 1182.68C864.447 1182.75 875.905 1181.37 886.476 1178.53C895.563 1176.1 901.83 1173.53 905.278 1170.81C908.675 1167.92 909.902 1164.7 908.958 1161.18C907.865 1157.1 904.448 1154.74 898.709 1154.09C893.155 1153.39 884.213 1153.4 871.883 1154.12C856.016 1154.99 842.604 1155.01 831.645 1154.17C820.636 1153.14 810.329 1149.54 800.725 1143.37C791.07 1137.01 784.354 1126.79 780.578 1112.69C777.298 1100.45 777.747 1088.4 781.926 1076.55C786.104 1064.7 794.193 1054.08 806.191 1044.71C818.374 1035.28 834.202 1027.96 853.675 1022.74C867.028 1019.16 880.5 1017.14 894.092 1016.68C907.82 1015.98 920.343 1017.1 931.663 1020.03L924.658 1072.89C902.972 1068.37 883.598 1068.39 866.536 1072.96C849.659 1077.48 842.314 1083.83 844.501 1091.99C845.544 1095.88 848.843 1098.18 854.397 1098.88C859.901 1099.39 868.701 1099.22 880.796 1098.36C896.378 1097.17 909.766 1097.06 920.96 1098.03C932.104 1098.83 942.479 1102.31 952.083 1108.48C961.874 1114.6 968.657 1124.71 972.434 1138.81C975.714 1151.05 975.264 1163.09 971.086 1174.95C966.858 1186.61 958.677 1197.25 946.543 1206.87C934.545 1216.24 918.809 1223.54 899.336 1228.76ZM1157.01 1101.87L1170.27 1151.39L1008.37 1194.77L956.191 1000.04L1114.48 957.628L1127.75 1007.15L1034 1032.27L1040.11 1055.08L1122.45 1033.01L1135.13 1080.3L1052.78 1102.37L1059.64 1127.96L1157.01 1101.87ZM1143.37 949.887L1209.02 932.296L1247.56 1076.12L1335.47 1052.56L1349.11 1103.47L1195.55 1144.62L1143.37 949.887ZM1515.88 1005.71L1529.14 1055.23L1367.24 1098.61L1315.06 903.882L1473.35 861.469L1486.62 910.986L1392.87 936.106L1398.98 958.917L1481.33 936.853L1494 984.145L1411.65 1006.21L1418.51 1031.8L1515.88 1005.71ZM1624.76 977.135L1606.95 981.906L1620.07 1030.87L1554.42 1048.46L1502.24 853.728L1595.99 828.608C1613.98 823.787 1630.45 822.556 1645.39 824.912C1660.33 827.269 1672.91 833.042 1683.12 842.232C1693.34 851.421 1700.43 863.434 1704.41 878.271C1708.14 892.18 1708.24 905.172 1704.72 917.248C1701.19 929.323 1694.32 940.011 1684.09 949.311L1741.08 998.442L1670.98 1017.23L1624.76 977.135ZM1638.2 896.011C1636.26 888.778 1632.55 883.811 1627.05 881.109C1621.51 878.222 1614.29 877.97 1605.38 880.356L1581.46 886.766L1593.68 932.389L1617.61 925.978C1626.51 923.593 1632.66 919.857 1636.07 914.77C1639.43 909.497 1640.14 903.244 1638.2 896.011ZM1835.5 977.913C1819.36 982.237 1803.13 984.699 1786.79 985.3C1770.59 985.665 1756.75 984.105 1745.29 980.619L1753.61 927.105C1764.32 929.999 1775.87 931.575 1788.27 931.832C1800.61 931.904 1812.07 930.523 1822.64 927.691C1831.73 925.256 1837.99 922.682 1841.44 919.969C1844.84 917.071 1846.07 913.86 1845.12 910.337C1844.03 906.256 1840.61 903.892 1834.87 903.243C1829.32 902.545 1820.38 902.556 1808.05 903.276C1792.18 904.148 1778.77 904.164 1767.81 903.324C1756.8 902.298 1746.49 898.699 1736.89 892.527C1727.23 886.169 1720.52 875.942 1716.74 861.848C1713.46 849.607 1713.91 837.561 1718.09 825.707C1722.27 813.854 1730.36 803.239 1742.35 793.862C1754.54 784.435 1770.37 777.113 1789.84 771.896C1803.19 768.318 1816.66 766.298 1830.26 765.836C1843.98 765.14 1856.51 766.256 1867.83 769.186L1860.82 822.049C1839.14 817.523 1819.76 817.546 1802.7 822.118C1785.82 826.64 1778.48 832.981 1780.66 841.142C1781.71 845.036 1785.01 847.333 1790.56 848.031C1796.06 848.544 1804.86 848.372 1816.96 847.517C1832.54 846.323 1845.93 846.215 1857.12 847.191C1868.27 847.981 1878.64 851.463 1888.25 857.635C1898.04 863.758 1904.82 873.867 1908.6 887.961C1911.88 900.202 1911.43 912.248 1907.25 924.102C1903.02 935.77 1894.84 946.41 1882.71 956.022C1870.71 965.398 1854.97 972.696 1835.5 977.913Z" fill="#2A2A2A"/>
</svg>
