<svg width="179" height="211" viewBox="0 0 179 211" fill="none" xmlns="http://www.w3.org/2000/svg">
<path d="M53.2625 96.0655C49.9397 96.4387 46.7658 97.6485 44.0378 99.5818C41.3097 101.515 39.1165 104.109 37.6634 107.12C37.3413 107.864 37.3234 108.705 37.6137 109.461C37.904 110.218 38.4792 110.831 39.2161 111.169C39.953 111.507 40.793 111.543 41.5558 111.268C42.3187 110.994 42.9437 110.432 43.297 109.702C44.2854 107.684 45.7616 105.944 47.592 104.641C49.4225 103.337 51.5492 102.51 53.7796 102.236C54.5857 102.151 55.3265 101.754 55.8432 101.129C56.3599 100.505 56.6114 99.7026 56.5437 98.8949C56.4761 98.0871 56.0947 97.3381 55.4814 96.8082C54.868 96.2783 54.0715 96.0098 53.2625 96.0602V96.0655Z" fill="url(#paint0_linear)"/>
<path d="M178.557 190.563L153.713 107.104C152.151 101.784 149.188 96.9816 145.132 93.2009C141.076 89.4203 136.078 86.8005 130.661 85.6162L113.482 40.7917C114.694 38.5368 115.03 35.9137 114.426 33.4261C114.102 32.3348 113.566 31.3181 112.849 30.4341C112.131 29.5501 111.247 28.8161 110.245 28.2742C109.244 27.7322 108.146 27.3929 107.014 27.2756C105.881 27.1583 104.737 27.2653 103.646 27.5906L92.4354 30.9272C91.3001 31.2714 90.2476 31.8453 89.3432 32.6132C88.4364 31.8462 87.3814 31.2741 86.2439 30.9325L75.0369 27.5994C73.9458 27.2739 72.8013 27.1665 71.6686 27.2836C70.536 27.4006 69.4376 27.7397 68.4361 28.2815C67.4346 28.8233 66.5497 29.5571 65.832 30.441C65.1143 31.325 64.5778 32.3417 64.2532 33.4332C63.6505 35.9211 63.9873 38.5439 65.1989 40.7988L48.0254 85.6162C42.6087 86.8005 37.6105 89.4203 33.5547 93.2009C29.499 96.9816 26.5351 101.784 24.9738 107.104L0.128176 190.563C-0.105601 191.351 -0.0172258 192.2 0.373907 192.922C0.765039 193.645 1.42697 194.183 2.21444 194.419L55.9719 210.422C56.2595 210.506 56.5577 210.549 56.8574 210.549C57.5252 210.549 58.175 210.334 58.7103 209.934C59.2455 209.535 59.6373 208.974 59.8274 208.334L67.4233 182.82L80.1888 139.939V139.928L84.6677 124.874C86.2684 119.569 86.4127 113.931 85.0853 108.551C83.7579 103.17 81.0078 98.2462 77.1232 94.2942L87.2605 47.3622C88.0018 46.9235 88.6992 46.4147 89.3432 45.8427C89.987 46.4165 90.6845 46.9271 91.426 47.3675L101.563 94.2942C97.6762 98.2465 94.9241 103.172 93.5958 108.554C92.2674 113.936 92.4117 119.576 94.0134 124.883L98.4923 139.937V139.948L111.258 182.829L118.852 208.343C119.043 208.983 119.435 209.544 119.97 209.943C120.506 210.342 121.156 210.558 121.824 210.558C122.123 210.558 122.422 210.515 122.709 210.431L176.467 194.428C176.858 194.312 177.223 194.12 177.54 193.863C177.857 193.606 178.12 193.289 178.315 192.93C178.509 192.571 178.63 192.177 178.672 191.771C178.713 191.364 178.674 190.954 178.557 190.563ZM62.3653 178.079L14.5478 163.846L25.5458 126.897L73.3633 141.132L62.3653 178.079ZM54.7694 203.596L6.95191 189.361L12.7803 169.787L60.5978 184.023L54.7694 203.596ZM86.1395 39.954C85.8065 41.0733 84.1187 42.1041 83.3714 42.4193C82.9039 42.6092 82.4899 42.9105 82.1655 43.297C81.8411 43.6834 81.6161 44.1433 81.51 44.6366L70.7068 94.6644C70.5928 95.1915 70.6183 95.7393 70.7807 96.2537C70.9432 96.768 71.2369 97.2311 71.633 97.5972C75.1063 100.742 77.6166 104.807 78.8726 109.321C80.1287 113.835 80.0791 118.613 78.7295 123.1L75.1308 135.185L27.3133 120.95L30.912 108.864C32.2353 104.368 34.8068 100.34 38.3278 97.2468C41.8489 94.1537 46.1751 92.1227 50.8041 91.3897C51.3382 91.3025 51.84 91.0767 52.2596 90.7348C52.6791 90.393 53.0016 89.9471 53.195 89.4416L71.5073 41.6454C71.6828 41.1772 71.744 40.6739 71.6858 40.1774C71.6276 39.6808 71.4516 39.2053 71.1726 38.7905C70.4298 37.7469 70.0814 36.4735 70.1897 35.1971C70.2818 34.8857 70.4345 34.5955 70.6391 34.3432C70.8436 34.0908 71.0958 33.8814 71.3815 33.7267C71.6671 33.5721 71.9804 33.4753 72.3034 33.4419C72.6265 33.4086 72.953 33.4393 73.2642 33.5323L84.4712 36.8672C85.1008 37.0549 85.6301 37.4849 85.9429 38.0627C86.2558 38.6405 86.3264 39.3189 86.1395 39.9487V39.954ZM105.321 141.132L153.139 126.897L164.137 163.846L116.319 178.079L105.321 141.132ZM107.053 97.5972C107.453 97.2319 107.749 96.7685 107.913 96.253C108.078 95.7375 108.104 95.188 107.99 94.659L97.1871 44.6313C97.081 44.138 96.856 43.6781 96.5316 43.2917C96.2072 42.9052 95.7932 42.6039 95.3257 42.414C94.7076 42.1625 92.903 41.1123 92.5576 39.947C92.3737 39.3192 92.4452 38.6442 92.7567 38.069C93.0682 37.4938 93.5944 37.065 94.2206 36.876L105.431 33.5376C105.742 33.4451 106.068 33.4148 106.391 33.4485C106.714 33.4821 107.026 33.579 107.312 33.7336C107.597 33.8882 107.849 34.0975 108.053 34.3495C108.257 34.6015 108.41 34.8914 108.502 35.2024C108.612 36.4719 108.269 37.7391 107.533 38.7799C107.245 39.1937 107.062 39.6717 107 40.1723C106.939 40.6729 107 41.181 107.179 41.6525L125.492 89.4487C125.685 89.9544 126.007 90.4004 126.427 90.7423C126.846 91.0842 127.348 91.3099 127.882 91.3968C132.511 92.1298 136.838 94.1608 140.359 97.2539C143.88 100.347 146.451 104.375 147.774 108.871L151.371 120.957L103.554 135.192L99.9552 123.107C98.6044 118.619 98.5543 113.84 99.8107 109.324C101.067 104.809 103.579 100.742 107.053 97.5972ZM123.919 203.596L118.092 184.023L165.91 169.787L171.736 189.361L123.919 203.596Z" fill="url(#paint1_linear)"/>
<path d="M108.068 120.454C108.223 120.454 108.377 120.443 108.531 120.42C108.933 120.36 109.32 120.222 109.669 120.012C110.018 119.803 110.322 119.526 110.564 119.199C110.806 118.872 110.981 118.501 111.08 118.106C111.178 117.711 111.198 117.3 111.137 116.898C110.863 114.686 111.144 112.44 111.957 110.365C112.77 108.289 114.088 106.45 115.792 105.012C116.44 104.507 116.861 103.765 116.962 102.949C117.064 102.133 116.836 101.31 116.331 100.662C115.826 100.014 115.083 99.5925 114.267 99.4913C113.452 99.3902 112.629 99.6173 111.98 100.123C109.417 102.241 107.433 104.975 106.213 108.069C104.994 111.163 104.578 114.516 105.006 117.813C105.116 118.547 105.486 119.217 106.048 119.701C106.61 120.186 107.326 120.453 108.068 120.454Z" fill="url(#paint2_linear)"/>
<path d="M89.3434 23.8538C90.1654 23.8538 90.9537 23.5273 91.5349 22.9461C92.1162 22.3649 92.4427 21.5765 92.4427 20.7546V3.09928C92.4427 2.2773 92.1162 1.48899 91.5349 0.907758C90.9537 0.32653 90.1654 0 89.3434 0C88.5214 0 87.7331 0.32653 87.1519 0.907758C86.5707 1.48899 86.2441 2.2773 86.2441 3.09928V20.7546C86.2441 21.5765 86.5707 22.3649 87.1519 22.9461C87.7331 23.5273 88.5214 23.8538 89.3434 23.8538Z" fill="url(#paint3_linear)"/>
<path d="M97.3782 23.5616C97.788 23.7551 98.2357 23.8549 98.6888 23.8539C99.2783 23.8542 99.8556 23.6865 100.353 23.3703C100.851 23.0541 101.248 22.6025 101.498 22.0687C101.538 21.9819 105.622 13.4296 114.297 10.7873C114.686 10.6688 115.048 10.4748 115.363 10.2163C115.677 9.95783 115.937 9.63998 116.129 9.2809C116.32 8.92181 116.439 8.52852 116.479 8.12348C116.518 7.71844 116.478 7.30959 116.359 6.92026C116.241 6.53093 116.047 6.16876 115.788 5.85441C115.53 5.54007 115.212 5.27971 114.853 5.0882C114.494 4.89669 114.1 4.77779 113.695 4.73827C113.29 4.69876 112.881 4.73941 112.492 4.85791C101.205 8.29192 96.0942 18.9871 95.8817 19.4405C95.709 19.8093 95.6107 20.2085 95.5925 20.6153C95.5742 21.0222 95.6364 21.4286 95.7754 21.8114C95.9144 22.1942 96.1275 22.5458 96.4025 22.8461C96.6775 23.1464 97.0091 23.3896 97.3782 23.5616Z" fill="url(#paint4_linear)"/>
<path d="M64.3896 10.7873C72.9631 13.3996 77.1303 21.9447 77.1923 22.0758C77.4439 22.6066 77.8412 23.055 78.3379 23.3685C78.8346 23.6821 79.4102 23.848 79.9976 23.8468C80.4507 23.8479 80.8984 23.748 81.3082 23.5546C81.6771 23.3825 82.0084 23.1395 82.2833 22.8393C82.5582 22.5391 82.7712 22.1876 82.9102 21.8051C83.0492 21.4225 83.1114 21.0163 83.0933 20.6096C83.0752 20.203 82.9771 19.8039 82.8047 19.4352C82.5904 18.9889 77.4775 8.29373 66.1943 4.85795C65.4083 4.61864 64.5593 4.70138 63.8343 5.08798C63.1093 5.47458 62.5675 6.13337 62.3282 6.91942C62.0889 7.70547 62.1716 8.55439 62.5582 9.27943C62.9448 10.0045 63.6036 10.5462 64.3896 10.7856V10.7873Z" fill="url(#paint5_linear)"/>
<defs>
<linearGradient id="paint0_linear" x1="54.3517" y1="111.451" x2="36.8039" y2="98.3042" gradientUnits="userSpaceOnUse">
<stop stop-color="#F12711"/>
<stop offset="1" stop-color="#F5AF19"/>
</linearGradient>
<linearGradient id="paint1_linear" x1="158.129" y1="210.558" x2="-31.9996" y2="98.9091" gradientUnits="userSpaceOnUse">
<stop stop-color="#F12711"/>
<stop offset="1" stop-color="#F5AF19"/>
</linearGradient>
<linearGradient id="paint2_linear" x1="115.589" y1="120.454" x2="100.096" y2="115.053" gradientUnits="userSpaceOnUse">
<stop stop-color="#F12711"/>
<stop offset="1" stop-color="#F5AF19"/>
</linearGradient>
<linearGradient id="paint3_linear" x1="91.7295" y1="23.8538" x2="83.0719" y2="22.4984" gradientUnits="userSpaceOnUse">
<stop stop-color="#F12711"/>
<stop offset="1" stop-color="#F5AF19"/>
</linearGradient>
<linearGradient id="paint4_linear" x1="114.088" y1="23.8539" x2="93.2203" y2="10.1156" gradientUnits="userSpaceOnUse">
<stop stop-color="#F12711"/>
<stop offset="1" stop-color="#F5AF19"/>
</linearGradient>
<linearGradient id="paint5_linear" x1="80.6915" y1="23.8468" x2="59.8287" y2="10.1079" gradientUnits="userSpaceOnUse">
<stop stop-color="#F12711"/>
<stop offset="1" stop-color="#F5AF19"/>
</linearGradient>
</defs>
</svg>
