<svg width="41" height="45" viewBox="0 0 41 45" fill="none" xmlns="http://www.w3.org/2000/svg">
<path fill-rule="evenodd" clip-rule="evenodd" d="M6.56 0.818182C6.94715 0.303124 7.55475 0 8.2 0H32.8C33.4453 0 34.0528 0.303124 34.44 0.818182L40.59 9C40.8561 9.35406 41 9.7847 41 10.2273V38.8636C41 40.4911 40.3521 42.0519 39.1987 43.2027C38.0454 44.3535 36.4811 45 34.85 45H6.15C4.51892 45 2.95464 44.3535 1.80129 43.2027C0.647945 42.0519 0 40.4911 0 38.8636V10.2273C0 9.7847 0.143865 9.35406 0.41 9L6.56 0.818182ZM9.225 4.09091L4.1 10.9091V38.8636C4.1 39.4061 4.31598 39.9264 4.70043 40.31C5.08488 40.6936 5.60631 40.9091 6.15 40.9091H34.85C35.3937 40.9091 35.9151 40.6936 36.2996 40.31C36.684 39.9264 36.9 39.4061 36.9 38.8636V10.9091L31.775 4.09091H9.225Z" fill="white"/>
<path fill-rule="evenodd" clip-rule="evenodd" d="M0 10.5C0 9.11929 0.917816 8 2.05 8H38.95C40.0822 8 41 9.11929 41 10.5C41 11.8807 40.0822 13 38.95 13H2.05C0.917816 13 0 11.8807 0 10.5Z" fill="white"/>
<path fill-rule="evenodd" clip-rule="evenodd" d="M12.1 17C13.2598 17 14.2 17.8208 14.2 18.8333C14.2 20.292 14.8637 21.691 16.0452 22.7224C17.2267 23.7539 18.8291 24.3333 20.5 24.3333C22.1709 24.3333 23.7733 23.7539 24.9548 22.7224C26.1363 21.691 26.8 20.292 26.8 18.8333C26.8 17.8208 27.7402 17 28.9 17C30.0598 17 31 17.8208 31 18.8333C31 21.2645 29.8938 23.5961 27.9246 25.3151C25.9555 27.0342 23.2848 28 20.5 28C17.7152 28 15.0445 27.0342 13.0754 25.3151C11.1062 23.5961 10 21.2645 10 18.8333C10 17.8208 10.9402 17 12.1 17Z" fill="white"/>
</svg>
