<svg width="187" height="211" viewBox="0 0 187 211" fill="none" xmlns="http://www.w3.org/2000/svg">
<path d="M186.788 37.8413C186.784 34.5695 185.665 31.3967 183.617 28.8455C181.569 26.2944 178.712 24.517 175.519 23.8062C175.447 19.7317 173.764 15.8516 170.838 13.0156C167.911 10.1796 163.98 8.61897 159.906 8.67542C158.638 6.08525 156.671 3.90118 154.227 2.36979C151.783 0.838397 148.96 0.0206833 146.076 0.00897399C142.478 -0.00799664 138.991 1.2502 136.232 3.5603C133.476 1.2478 129.99 -0.0135391 126.392 0.000109617C123.508 0.011819 120.685 0.829532 118.242 2.36092C115.798 3.89231 113.831 6.07639 112.563 8.66655H112.334C108.299 8.67149 104.427 10.2595 101.55 13.0892C98.673 15.919 97.0213 19.7645 96.9498 23.7991C94.1186 24.424 91.5428 25.8912 89.5612 28.0077C87.5796 30.1242 86.2851 32.791 85.8479 35.6571C85.4106 38.5233 85.8511 41.4548 87.1115 44.0659C88.3718 46.6769 90.393 48.8454 92.9091 50.286C91.6946 60.3319 89.1167 91.1183 98.6554 118.681C108.547 147.253 108.762 170.393 99.3309 193.708C98.7759 195.07 98.4888 196.527 98.4852 197.998V199.271C98.4852 202.325 99.697 205.254 101.854 207.414C104.012 209.575 106.939 210.791 109.992 210.796H162.473C165.526 210.791 168.452 209.574 170.609 207.414C172.766 205.253 173.978 202.325 173.978 199.271V197.998C173.975 196.527 173.687 195.07 173.13 193.708C163.707 170.393 163.911 147.255 173.808 118.681C183.348 91.1183 180.769 60.3319 179.554 50.286C181.748 49.0317 183.573 47.2205 184.843 45.0354C186.113 42.8503 186.784 40.3687 186.788 37.8413ZM167.948 116.65C157.532 146.741 157.358 171.224 167.382 196.032C167.64 196.655 167.774 197.323 167.778 197.997V199.27C167.778 200.677 167.22 202.027 166.227 203.024C165.233 204.021 163.886 204.584 162.478 204.589H109.992C108.584 204.584 107.236 204.022 106.242 203.025C105.249 202.028 104.691 200.677 104.691 199.27V197.997C104.694 197.323 104.829 196.655 105.086 196.032C115.111 171.224 114.937 146.743 104.521 116.65C95.7247 91.2371 97.737 62.7839 98.9391 52.1459C99.3061 52.1743 99.6749 52.2026 100.051 52.2026C100.843 52.2022 101.633 52.1358 102.414 52.0041V76.4378C102.417 79.0036 103.437 81.4636 105.252 83.2781C107.066 85.0925 109.525 86.1134 112.091 86.1167H112.531C115.097 86.1138 117.557 85.0931 119.371 83.2786C121.185 81.464 122.206 79.0038 122.208 76.4378V67.97C122.209 67.0494 122.576 66.1669 123.227 65.5161C123.878 64.8654 124.761 64.4994 125.681 64.4984H127.632C128.55 64.5026 129.429 64.8701 130.077 65.5206C130.725 66.1711 131.09 67.0517 131.091 67.97V84.7887C131.064 86.3074 131.34 87.8162 131.903 89.2271C132.465 90.638 133.304 91.9227 134.368 93.0062C135.433 94.0897 136.702 94.9502 138.103 95.5377C139.504 96.1251 141.008 96.4277 142.527 96.4277C144.046 96.4277 145.549 96.1251 146.95 95.5377C148.351 94.9502 149.621 94.0897 150.685 93.0062C151.75 91.9227 152.588 90.638 153.151 89.2271C153.713 87.8162 153.989 86.3074 153.962 84.7887V53.5962C156.227 54.2684 158.617 54.4101 160.945 54.0104C163.273 53.6107 165.478 52.6803 167.389 51.2913C168.997 51.8938 170.701 52.2024 172.418 52.2026C172.794 52.2026 173.162 52.1743 173.529 52.1459C174.731 62.7839 176.746 91.2371 167.948 116.65ZM172.418 45.9971C171.02 46.001 169.646 45.6411 168.43 44.9528C167.847 44.625 167.174 44.4943 166.511 44.5803C165.847 44.6662 165.23 44.9642 164.749 45.4298C163.153 46.9376 161.075 47.8328 158.882 47.957C156.69 48.0813 154.524 47.4267 152.767 46.1088C152.308 45.7545 151.759 45.5357 151.182 45.4775C150.605 45.4192 150.024 45.5237 149.503 45.7791C148.982 46.0345 148.544 46.4307 148.237 46.9227C147.93 47.4146 147.767 47.9828 147.766 48.5627V84.7887C147.784 85.487 147.662 86.1819 147.408 86.8324C147.153 87.4828 146.77 88.0757 146.283 88.5761C145.796 89.0764 145.213 89.4741 144.569 89.7456C143.926 90.0171 143.234 90.157 142.535 90.157C141.837 90.157 141.145 90.0171 140.502 89.7456C139.858 89.4741 139.275 89.0764 138.788 88.5761C138.3 88.0757 137.918 87.4828 137.663 86.8324C137.409 86.1819 137.287 85.487 137.305 84.7887V67.97C137.302 65.4043 136.282 62.9446 134.468 61.1304C132.653 59.3162 130.194 58.2957 127.628 58.2929H125.678C123.112 58.2953 120.652 59.3155 118.837 61.1297C117.022 62.944 116.002 65.404 115.999 67.97V76.4378C115.998 77.3584 115.632 78.2411 114.981 78.8922C114.33 79.5433 113.448 79.9097 112.527 79.9111H112.088C111.167 79.9097 110.285 79.5433 109.634 78.8922C108.983 78.2411 108.617 77.3584 108.616 76.4378V47.6762C108.615 47.1362 108.474 46.6057 108.205 46.1371C107.937 45.6685 107.551 45.2781 107.085 45.0043C106.62 44.7306 106.091 44.583 105.551 44.5762C105.011 44.5693 104.479 44.7034 104.006 44.9652C102.798 45.644 101.435 45.9994 100.049 45.9971C97.903 45.9769 95.8513 45.1127 94.3375 43.5915C92.8238 42.0703 91.9696 40.0143 91.9598 37.8683C91.95 35.7222 92.7854 33.6586 94.2852 32.1237C95.7851 30.5887 97.8289 29.7059 99.9745 29.666L100.249 29.6784C100.715 29.684 101.177 29.5862 101.6 29.3921C102.024 29.1981 102.399 28.9126 102.7 28.5561C102.997 28.197 103.21 27.7753 103.323 27.3226C103.435 26.8698 103.444 26.3976 103.349 25.9409C103.031 24.4624 103.085 22.9281 103.505 21.4755C103.926 20.0228 104.7 18.697 105.758 17.6167C106.816 16.5365 108.126 15.7354 109.57 15.2852C111.013 14.835 112.546 14.7497 114.031 15.037C114.789 15.1763 115.571 15.029 116.227 14.6237C116.882 14.2184 117.363 13.584 117.577 12.8437C118.134 10.9345 119.293 9.2565 120.882 8.06015C122.471 6.86381 124.404 6.21327 126.392 6.20562C127.824 6.20131 129.236 6.53443 130.514 7.17795C131.792 7.82146 132.901 8.75726 133.75 9.90942C134.051 10.2765 134.43 10.5722 134.86 10.7752C135.289 10.9782 135.758 11.0835 136.232 11.0835C136.707 11.0835 137.176 10.9782 137.605 10.7752C138.035 10.5722 138.413 10.2765 138.715 9.90942C139.564 8.75726 140.672 7.82146 141.951 7.17795C143.229 6.53443 144.641 6.20131 146.073 6.20562C148.061 6.21354 149.993 6.864 151.582 8.05997C153.17 9.25595 154.329 10.9333 154.886 12.842C155.101 13.5818 155.582 14.2157 156.237 14.6209C156.892 15.026 157.675 15.1737 158.432 15.0352C159.916 14.7544 161.446 14.8442 162.887 15.2967C164.327 15.7492 165.634 16.5503 166.691 17.629C167.748 18.7077 168.522 20.0306 168.945 21.4802C169.367 22.9299 169.426 24.4615 169.115 25.9391C169.019 26.3916 169.025 26.8598 169.133 27.3095C169.242 27.7592 169.449 28.1789 169.741 28.5381C170.032 28.8972 170.4 29.1866 170.818 29.3852C171.236 29.5837 171.693 29.6863 172.155 29.6855C172.212 29.6855 172.343 29.6855 172.467 29.6731C174.612 29.7105 176.657 30.5907 178.158 32.1232C179.66 33.6558 180.498 35.7177 180.491 37.8631C180.485 40.0086 179.634 42.0653 178.123 43.5887C176.613 45.1121 174.563 45.9798 172.418 46.0042V45.9971Z" fill="url(#paint0_linear)"/>
<path d="M151.789 128.678C150.986 128.5 150.145 128.649 149.451 129.09C148.757 129.532 148.266 130.231 148.087 131.034C145.229 143.466 144.337 156.268 145.443 168.976C145.516 169.745 145.872 170.458 146.442 170.978C147.013 171.498 147.757 171.786 148.528 171.786C148.627 171.787 148.726 171.782 148.824 171.772C149.23 171.734 149.624 171.617 149.984 171.426C150.344 171.236 150.663 170.976 150.923 170.662C151.183 170.348 151.378 169.986 151.498 169.597C151.617 169.208 151.659 168.798 151.62 168.393C150.575 156.331 151.425 144.179 154.14 132.38C154.319 131.577 154.171 130.736 153.73 130.042C153.29 129.348 152.591 128.857 151.789 128.678Z" fill="url(#paint1_linear)"/>
<path d="M158.982 107.313C158.605 107.158 158.201 107.079 157.793 107.08C157.386 107.081 156.982 107.163 156.606 107.321C156.23 107.478 155.889 107.708 155.602 107.998C155.315 108.287 155.088 108.63 154.934 109.008C153.939 111.437 152.984 114.015 152.087 116.674C151.957 117.06 151.904 117.468 151.931 117.875C151.959 118.282 152.067 118.679 152.248 119.044C152.429 119.409 152.68 119.734 152.987 120.002C153.294 120.27 153.651 120.475 154.037 120.605C154.423 120.735 154.831 120.788 155.238 120.76C155.644 120.733 156.041 120.625 156.406 120.444C156.771 120.263 157.097 120.012 157.365 119.705C157.633 119.398 157.838 119.041 157.968 118.655C158.82 116.119 159.741 113.667 160.677 111.361C160.988 110.599 160.985 109.745 160.667 108.986C160.349 108.227 159.743 107.625 158.982 107.313Z" fill="url(#paint2_linear)"/>
<path d="M143.066 19.5794C142.658 19.5896 142.257 19.68 141.884 19.8454C141.512 20.0108 141.175 20.248 140.895 20.5433C140.614 20.8387 140.394 21.1865 140.247 21.5668C140.101 21.9472 140.031 22.3527 140.041 22.7601C140.051 23.1676 140.142 23.5691 140.307 23.9416C140.472 24.3141 140.71 24.6504 141.005 24.9313C141.3 25.2122 141.648 25.4321 142.028 25.5786C142.409 25.725 142.814 25.7951 143.222 25.7849C143.987 25.7955 144.737 25.9899 145.411 26.3515C146.085 26.7131 146.662 27.2315 147.094 27.8629C147.503 28.5774 148.178 29.1003 148.973 29.3166C149.767 29.5329 150.614 29.4248 151.329 29.0162C152.043 28.6076 152.566 27.9318 152.783 27.1376C152.999 26.3435 152.891 25.4959 152.482 24.7814C151.5 23.1709 150.115 21.8442 148.464 20.932C146.812 20.0198 144.952 19.5536 143.066 19.5794Z" fill="url(#paint3_linear)"/>
<path d="M132.914 31.7881C130.283 30.6193 127.323 30.4208 124.56 31.2278C121.797 32.0347 119.41 33.795 117.822 36.1958C117.591 36.5387 117.43 36.9243 117.351 37.33C117.271 37.7357 117.273 38.1533 117.356 38.5582C117.44 38.9631 117.604 39.3472 117.838 39.6879C118.072 40.0286 118.372 40.3191 118.721 40.5422C119.069 40.7653 119.458 40.9166 119.865 40.9871C120.273 41.0577 120.69 41.0461 121.093 40.953C121.496 40.8599 121.876 40.6873 122.211 40.4452C122.547 40.2031 122.83 39.8964 123.045 39.5432C125.536 35.6586 130.006 37.3075 130.524 37.5149C131.283 37.8318 132.137 37.8341 132.898 37.5212C133.659 37.2083 134.265 36.6059 134.582 35.8465C134.899 35.0871 134.901 34.2329 134.588 33.4718C134.275 32.7107 133.673 32.105 132.914 31.7881Z" fill="url(#paint4_linear)"/>
<path d="M48.8963 38.3852C48.5939 37.6515 48.0216 37.0616 47.2974 36.737C46.5732 36.4124 45.7521 36.3779 45.0032 36.6405C44.2542 36.9031 43.6345 37.4428 43.2715 38.1485C42.9085 38.8543 42.8299 39.6723 43.0519 40.4343C43.5945 41.9906 43.6702 43.6717 43.2697 45.2705C42.8691 46.8694 42.0097 48.3162 40.7974 49.4328C40.4909 49.7066 40.2418 50.0386 40.0648 50.4096C39.8878 50.7805 39.7864 51.183 39.7664 51.5935C39.7464 52.004 39.8082 52.4144 39.9483 52.8008C40.0884 53.1872 40.3039 53.5418 40.5824 53.8441C40.8609 54.1464 41.1967 54.3903 41.5703 54.5616C41.9439 54.7329 42.3478 54.8282 42.7586 54.8419C43.1694 54.8556 43.5788 54.7875 43.963 54.6415C44.3472 54.4955 44.6985 54.2745 44.9965 53.9914C47.0981 52.0541 48.5877 49.5449 49.2821 46.7722C49.9765 43.9995 49.8455 41.0844 48.9051 38.3852H48.8963Z" fill="url(#paint5_linear)"/>
<path d="M47.1358 115.621C47.4217 115.917 47.7638 116.153 48.1419 116.315C48.5201 116.478 48.9268 116.563 49.3383 116.567C49.7498 116.57 50.1579 116.492 50.5388 116.336C50.9196 116.18 51.2656 115.95 51.5566 115.658C51.8475 115.367 52.0776 115.021 52.2333 114.64C52.3891 114.26 52.4674 113.851 52.4638 113.44C52.4601 113.028 52.3745 112.622 52.212 112.244C52.0495 111.865 51.8133 111.524 51.5173 111.238L46.0873 105.806C45.5029 105.241 44.7201 104.929 43.9075 104.936C43.0948 104.943 42.3174 105.268 41.7427 105.843C41.1679 106.417 40.8418 107.195 40.8346 108.007C40.8274 108.82 41.1396 109.603 41.7041 110.187L47.1358 115.621Z" fill="url(#paint6_linear)"/>
<path d="M32.8736 101.359L34.2904 102.776C34.5762 103.072 34.918 103.308 35.296 103.471C35.6741 103.634 36.0807 103.719 36.4922 103.723C36.9037 103.727 37.3119 103.649 37.6929 103.493C38.0738 103.338 38.42 103.108 38.7112 102.817C39.0024 102.526 39.2327 102.18 39.3888 101.8C39.5448 101.419 39.6235 101.011 39.6202 100.599C39.6169 100.188 39.5316 99.7809 39.3694 99.4027C39.2072 99.0244 38.9713 98.6823 38.6755 98.3962L37.2587 96.9794C36.6779 96.3977 35.8898 96.0705 35.0678 96.0698C34.2457 96.0692 33.4571 96.3951 32.8754 96.9759C32.2937 97.5566 31.9665 98.3447 31.9658 99.1668C31.9652 99.9888 32.2911 100.777 32.8719 101.359H32.8736Z" fill="url(#paint7_linear)"/>
<path d="M70.1341 82.9226V66.3512C70.1341 65.5292 69.8076 64.7409 69.2264 64.1597C68.6451 63.5785 67.8568 63.2519 67.0348 63.2519H51.9635C55.8759 59.9619 58.7401 55.599 60.2033 50.7009C61.6664 45.8029 61.6644 40.5838 60.1976 35.6869C58.7308 30.7899 55.8632 26.4292 51.9483 23.1421C48.0334 19.855 43.2423 17.7852 38.1655 17.1877V3.09928C38.1655 2.2773 37.8389 1.48899 37.2577 0.907758C36.6765 0.32653 35.8882 0 35.0662 0C34.2442 0 33.4559 0.32653 32.8747 0.907758C32.2934 1.48899 31.9669 2.2773 31.9669 3.09928V17.1877C26.8902 17.7855 22.0993 19.8555 18.1846 23.1427C14.27 26.4299 11.4026 30.7907 9.93602 35.6876C8.46941 40.5844 8.46759 45.8034 9.9308 50.7013C11.394 55.5992 14.2583 59.962 18.1707 63.2519H3.09928C2.2773 63.2519 1.48899 63.5785 0.907764 64.1597C0.326536 64.7409 5.06641e-07 65.5292 5.06641e-07 66.3512V82.9226C-0.000232304 83.3297 0.0797725 83.7328 0.235444 84.109C0.391115 84.4851 0.619409 84.8268 0.90725 85.1147C1.19509 85.4025 1.53685 85.6308 1.91297 85.7865C2.2891 85.9421 2.69221 86.0222 3.09928 86.0219H27.5854L2.36609 111.238C1.78566 111.819 1.45968 112.608 1.45968 113.429C1.45968 114.251 1.78566 115.039 2.36609 115.621L27.5836 140.837H3.09928C2.69221 140.837 2.2891 140.917 1.91297 141.072C1.53685 141.228 1.19509 141.456 0.90725 141.744C0.619409 142.032 0.391115 142.374 0.235444 142.75C0.0797725 143.126 -0.000232304 143.529 5.06641e-07 143.936V160.506C-0.000232304 160.913 0.0797725 161.316 0.235444 161.692C0.391115 162.068 0.619409 162.41 0.90725 162.698C1.19509 162.986 1.53685 163.214 1.91297 163.369C2.2891 163.525 2.69221 163.605 3.09928 163.605H31.9669V207.45C31.9669 208.272 32.2934 209.06 32.8747 209.642C33.4559 210.223 34.2442 210.549 35.0662 210.549C35.8882 210.549 36.6765 210.223 37.2577 209.642C37.8389 209.06 38.1655 208.272 38.1655 207.45V163.605H67.0331C67.4401 163.605 67.8432 163.525 68.2194 163.369C68.5955 163.214 68.9373 162.986 69.2251 162.698C69.5129 162.41 69.7412 162.068 69.8969 161.692C70.0526 161.316 70.1326 160.913 70.1323 160.506V143.936C70.1326 143.529 70.0526 143.126 69.8969 142.75C69.7412 142.374 69.5129 142.032 69.2251 141.744C68.9373 141.456 68.5955 141.228 68.2194 141.072C67.8432 140.917 67.4401 140.837 67.0331 140.837H42.5452L67.7645 115.621C68.0525 115.333 68.281 114.992 68.4369 114.616C68.5928 114.24 68.6731 113.836 68.6731 113.429C68.6731 113.022 68.5928 112.619 68.4369 112.243C68.281 111.867 68.0525 111.525 67.7645 111.238L42.5452 86.0219H67.0313C67.4387 86.0226 67.8422 85.943 68.2187 85.7875C68.5952 85.632 68.9374 85.4038 69.2256 85.1159C69.5138 84.828 69.7424 84.4861 69.8983 84.1098C70.0542 83.7334 70.1344 83.33 70.1341 82.9226ZM63.9356 157.406H6.20034V147.035H63.9356V157.406ZM35.0679 139.555L8.94011 113.421L35.0662 87.3041L61.1905 113.421L35.0679 139.555ZM15.0342 43.2182C15.0342 39.2558 16.2092 35.3824 18.4106 32.0878C20.612 28.7933 23.741 26.2255 27.4018 24.7092C31.0626 23.193 35.0908 22.7963 38.977 23.5695C42.8632 24.3426 46.4329 26.2508 49.2346 29.0528C52.0363 31.8547 53.9442 35.4246 54.717 39.3109C55.4898 43.1971 55.0928 47.2253 53.5762 50.886C52.0596 54.5466 49.4916 57.6754 46.1968 59.8765C42.9021 62.0776 39.0286 63.2523 35.0662 63.2519C29.7551 63.2454 24.6634 61.1325 20.908 57.3768C17.1527 53.6211 15.0403 48.5293 15.0342 43.2182ZM63.9356 79.8234H6.20034V69.4505H63.9356V79.8234Z" fill="url(#paint8_linear)"/>
<defs>
<linearGradient id="paint0_linear" x1="175.156" y1="210.796" x2="41.6306" y2="172.212" gradientUnits="userSpaceOnUse">
<stop stop-color="#F12711"/>
<stop offset="1" stop-color="#F5AF19"/>
</linearGradient>
<linearGradient id="paint1_linear" x1="153.152" y1="171.787" x2="140.159" y2="170.113" gradientUnits="userSpaceOnUse">
<stop stop-color="#F12711"/>
<stop offset="1" stop-color="#F5AF19"/>
</linearGradient>
<linearGradient id="paint2_linear" x1="159.874" y1="120.767" x2="148.758" y2="116.371" gradientUnits="userSpaceOnUse">
<stop stop-color="#F12711"/>
<stop offset="1" stop-color="#F5AF19"/>
</linearGradient>
<linearGradient id="paint3_linear" x1="151.413" y1="29.4257" x2="140.049" y2="20.4902" gradientUnits="userSpaceOnUse">
<stop stop-color="#F12711"/>
<stop offset="1" stop-color="#F5AF19"/>
</linearGradient>
<linearGradient id="paint4_linear" x1="132.805" y1="41.0326" x2="120.585" y2="28.495" gradientUnits="userSpaceOnUse">
<stop stop-color="#F12711"/>
<stop offset="1" stop-color="#F5AF19"/>
</linearGradient>
<linearGradient id="paint5_linear" x1="48.5757" y1="54.8436" x2="35.6979" y2="50.6393" gradientUnits="userSpaceOnUse">
<stop stop-color="#F12711"/>
<stop offset="1" stop-color="#F5AF19"/>
</linearGradient>
<linearGradient id="paint6_linear" x1="51.1259" y1="116.567" x2="38.9156" y2="109.211" gradientUnits="userSpaceOnUse">
<stop stop-color="#F12711"/>
<stop offset="1" stop-color="#F5AF19"/>
</linearGradient>
<linearGradient id="paint7_linear" x1="38.7396" y1="103.723" x2="30.7039" y2="98.8816" gradientUnits="userSpaceOnUse">
<stop stop-color="#F12711"/>
<stop offset="1" stop-color="#F5AF19"/>
</linearGradient>
<linearGradient id="paint8_linear" x1="62.065" y1="210.549" x2="-34.4076" y2="191.189" gradientUnits="userSpaceOnUse">
<stop stop-color="#F12711"/>
<stop offset="1" stop-color="#F5AF19"/>
</linearGradient>
</defs>
</svg>
