<svg width="211" height="211" viewBox="0 0 211 211" fill="none" xmlns="http://www.w3.org/2000/svg">
<path d="M106.77 95.0523C106.812 94.2303 106.525 93.4255 105.973 92.8151C105.421 92.2046 104.649 91.8385 103.827 91.7971C103.005 91.7558 102.2 92.0427 101.59 92.5947C100.979 93.1467 100.613 93.9186 100.572 94.7406C100.293 100.65 98.0116 106.288 94.1028 110.728C90.194 115.168 84.8905 118.146 79.0645 119.172C78.2554 119.317 77.5373 119.778 77.068 120.453C76.5987 121.128 76.4167 121.961 76.562 122.77C76.7074 123.58 77.1682 124.298 77.8431 124.767C78.518 125.236 79.3517 125.418 80.1608 125.273C87.368 124.004 93.9291 120.321 98.7651 114.829C103.601 109.337 106.424 102.362 106.77 95.0523Z" fill="url(#paint0_linear)"/>
<path d="M104.133 85.7403H104.293C105.087 85.7395 105.851 85.4337 106.426 84.8859C107.002 84.3382 107.345 83.5904 107.385 82.7969L107.828 73.9666C107.848 73.5596 107.788 73.1526 107.651 72.7688C107.514 72.385 107.303 72.0319 107.029 71.7297C106.756 71.4275 106.426 71.1821 106.058 71.0076C105.689 70.833 105.29 70.7327 104.883 70.7124C104.476 70.692 104.069 70.752 103.685 70.889C103.302 71.0259 102.949 71.2371 102.646 71.5106C102.344 71.784 102.099 72.1142 101.924 72.4824C101.75 72.8507 101.649 73.2497 101.629 73.6567L101.202 82.4888C101.161 83.3084 101.446 84.111 101.995 84.7205C102.545 85.3301 103.314 85.6968 104.133 85.7403Z" fill="url(#paint1_linear)"/>
<path d="M210.486 182.417C210.356 181.698 209.969 181.052 209.397 180.598C208.825 180.143 208.108 179.913 207.378 179.948L181.369 180.564L162.347 133.661C168.093 129.898 172.965 124.946 176.632 119.139C180.3 113.331 182.678 106.804 183.605 99.9988C184.533 93.1932 183.988 86.2679 182.008 79.6909C180.029 73.1139 176.66 67.0387 172.13 61.8759L150.754 37.5279C150.328 37.0452 149.764 36.7062 149.138 36.5578C148.512 36.4093 147.856 36.4587 147.259 36.6991L105.276 53.7274L63.29 36.6991C62.6934 36.459 62.037 36.4097 61.4112 36.5582C60.7854 36.7066 60.221 37.0454 59.7958 37.5279L38.4196 61.8759C33.8894 67.0387 30.5205 73.114 28.5407 79.6911C26.561 86.2682 26.0165 93.1937 26.9442 99.9993C27.8719 106.805 30.25 113.332 33.9179 119.139C37.5857 124.947 42.4577 129.899 48.2045 133.661L29.182 180.564L3.17281 179.948C2.44457 179.917 1.72969 180.15 1.15895 180.603C0.588212 181.057 0.199765 181.7 0.0646695 182.417C-0.0826823 183.127 0.0235825 183.866 0.364971 184.506C0.706359 185.145 1.26126 185.645 1.93309 185.918L62.13 210.33C62.8023 210.603 63.549 210.631 64.2402 210.411C64.9313 210.19 65.5231 209.733 65.9123 209.121C66.3015 208.509 66.4635 207.779 66.3701 207.059C66.2767 206.34 65.9338 205.676 65.4011 205.183L46.3007 187.51L65.3249 140.617C77.3887 143.029 89.9173 140.635 100.242 133.946C101.996 132.822 103.677 131.588 105.276 130.253C110.719 134.886 117.14 138.224 124.059 140.018C130.978 141.812 138.213 142.015 145.221 140.612L164.25 187.51L145.157 205.183C144.624 205.676 144.282 206.34 144.188 207.059C144.095 207.779 144.257 208.509 144.646 209.121C145.035 209.733 145.627 210.19 146.318 210.411C147.009 210.631 147.756 210.603 148.428 210.33L208.623 185.918C209.294 185.644 209.848 185.144 210.188 184.504C210.529 183.865 210.634 183.126 210.486 182.417ZM39.7603 187.165C39.524 187.748 39.4708 188.39 39.6077 189.004C39.7447 189.618 40.0654 190.176 40.5271 190.604L48.7482 198.22L19.978 186.552L31.1779 186.816C31.8068 186.83 32.4253 186.653 32.9513 186.308C33.4773 185.963 33.886 185.466 34.1231 184.884L53.6522 136.721C54.5625 137.157 55.4887 137.569 56.4344 137.961C57.3801 138.352 58.3365 138.687 59.2928 139.009L39.7603 187.165ZM96.9111 128.721C88.4328 134.132 78.2862 136.302 68.3366 134.83C58.3869 133.358 49.3028 128.344 42.7542 120.71C36.2056 113.076 32.6326 103.335 32.6919 93.2774C32.7513 83.2196 36.4391 73.5213 43.0774 65.9652L63.0014 43.2713L117.673 65.4445L116.16 95.6032C115.683 106.41 110.976 116.596 103.055 123.962C103.042 123.975 103.028 123.982 103.018 123.994L103.003 124.012C101.117 125.76 99.0778 127.335 96.9093 128.718L96.9111 128.721ZM109.804 125.962C117.406 117.745 121.852 107.101 122.353 95.9184L123.976 63.5601C124.008 62.9172 123.84 62.2801 123.494 61.7372C123.148 61.1943 122.642 60.7723 122.045 60.5299L113.525 57.0747L147.55 43.2713L167.474 65.9652C174.376 73.8289 178.074 83.9971 177.837 94.4574C177.6 104.918 173.445 114.908 166.193 122.451C158.942 129.994 149.124 134.54 138.681 135.189C128.238 135.839 117.932 132.545 109.802 125.958L109.804 125.962ZM161.806 198.22L170.028 190.604C170.489 190.176 170.81 189.618 170.947 189.004C171.084 188.39 171.031 187.748 170.794 187.165L151.26 138.993C152.216 138.673 153.171 138.331 154.118 137.946C155.066 137.562 155.99 137.151 156.901 136.707L176.432 184.864C176.663 185.436 177.06 185.925 177.572 186.27C178.083 186.614 178.686 186.798 179.302 186.798H179.377L190.575 186.534L161.806 198.22Z" fill="url(#paint2_linear)"/>
<path d="M158.126 108.684C157.665 109.353 157.485 110.175 157.625 110.975C157.764 111.775 158.212 112.489 158.872 112.962C159.532 113.435 160.351 113.63 161.154 113.506C161.956 113.381 162.678 112.946 163.163 112.295C167.452 106.366 169.596 99.1537 169.241 91.8444C168.887 84.5352 166.057 77.564 161.215 72.077C160.948 71.7658 160.622 71.5107 160.256 71.3264C159.889 71.1421 159.49 71.0323 159.081 71.0033C158.672 70.9744 158.262 71.0269 157.873 71.1578C157.485 71.2887 157.126 71.4953 156.818 71.7658C156.51 72.0363 156.258 72.3653 156.078 72.7336C155.898 73.102 155.793 73.5024 155.769 73.9117C155.744 74.3209 155.802 74.731 155.937 75.118C156.072 75.505 156.283 75.8613 156.557 76.1663C160.471 80.6032 162.759 86.2401 163.044 92.15C163.33 98.0598 161.595 103.891 158.126 108.684Z" fill="url(#paint3_linear)"/>
<path d="M153.118 62.8551L147.288 56.2103C146.743 55.6008 145.98 55.231 145.165 55.1813C144.349 55.1316 143.547 55.4061 142.932 55.945C142.318 56.4839 141.941 57.2436 141.884 58.0588C141.828 58.874 142.095 59.6787 142.628 60.2978L148.458 66.9427C149.001 67.5606 149.766 67.9377 150.587 67.9912C151.407 68.0447 152.215 67.7701 152.833 67.2278C153.451 66.6855 153.828 65.92 153.881 65.0996C153.935 64.2793 153.66 63.4713 153.118 62.8534V62.8551Z" fill="url(#paint4_linear)"/>
<path d="M105.276 42.6708C106.098 42.6708 106.886 42.3443 107.467 41.7631C108.048 41.1818 108.375 40.3935 108.375 39.5715V21.6842C108.375 20.8623 108.048 20.0739 107.467 19.4927C106.886 18.9115 106.098 18.585 105.276 18.585C104.454 18.585 103.665 18.9115 103.084 19.4927C102.503 20.0739 102.176 20.8623 102.176 21.6842V39.5768C102.178 40.3979 102.505 41.1849 103.086 41.7649C103.667 42.345 104.454 42.6708 105.276 42.6708Z" fill="url(#paint5_linear)"/>
<path d="M105.276 13.8139C106.098 13.8139 106.886 13.4874 107.467 12.9062C108.048 12.325 108.375 11.5366 108.375 10.7147V3.09928C108.375 2.2773 108.048 1.48899 107.467 0.907759C106.886 0.326531 106.098 0 105.276 0C104.454 0 103.665 0.326531 103.084 0.907759C102.503 1.48899 102.176 2.2773 102.176 3.09928V10.7147C102.176 11.5366 102.503 12.325 103.084 12.9062C103.665 13.4874 104.454 13.8139 105.276 13.8139Z" fill="url(#paint6_linear)"/>
<path d="M133.876 21.0734C134.593 21.0718 135.287 20.8215 135.84 20.365C137.406 19.0768 139.086 17.9339 140.859 16.9505C141.54 16.5339 142.034 15.8704 142.238 15.0985C142.442 14.3265 142.34 13.5056 141.954 12.8068C141.568 12.1081 140.926 11.5854 140.164 11.3477C139.402 11.1101 138.577 11.1758 137.862 11.5312C135.76 12.6968 133.767 14.0513 131.91 15.5779C131.418 15.9837 131.063 16.5314 130.894 17.1463C130.725 17.7611 130.749 18.4132 130.964 19.0136C131.179 19.614 131.574 20.1335 132.095 20.5011C132.616 20.8688 133.238 21.0668 133.876 21.0681V21.0734Z" fill="url(#paint7_linear)"/>
<path d="M118.284 42.5328C118.58 42.625 118.889 42.6716 119.2 42.6709C119.862 42.6709 120.506 42.459 121.039 42.066C121.572 41.673 121.965 41.1198 122.161 40.4872C123.765 35.9116 126.052 31.6044 128.942 27.7111C129.184 27.3838 129.358 27.012 129.456 26.6171C129.554 26.2222 129.574 25.8119 129.513 25.4095C129.452 25.0072 129.313 24.6207 129.103 24.2722C128.893 23.9237 128.617 23.62 128.289 23.3783C127.962 23.1367 127.59 22.9619 127.195 22.8639C126.8 22.7659 126.39 22.7467 125.988 22.8073C125.585 22.8679 125.199 23.0071 124.85 23.2171C124.502 23.427 124.198 23.7036 123.956 24.0309C120.648 28.4846 118.045 33.421 116.238 38.6666C115.998 39.4506 116.079 40.2977 116.462 41.0224C116.846 41.7471 117.501 42.2903 118.284 42.5328Z" fill="url(#paint8_linear)"/>
<path d="M69.6924 16.9576C71.4657 17.941 73.1456 19.0839 74.7115 20.3722C75.3473 20.8933 76.164 21.1405 76.982 21.0595C77.8 20.9785 78.5524 20.5758 79.0735 19.94C79.5947 19.3043 79.8419 18.4876 79.7609 17.6695C79.6798 16.8515 79.2771 16.0991 78.6414 15.578C76.7841 14.0514 74.7917 12.6969 72.689 11.5312C71.9694 11.1339 71.1214 11.0386 70.3316 11.2665C69.5418 11.4943 68.8749 12.0266 68.4775 12.7461C68.0802 13.4657 67.9849 14.3137 68.2128 15.1035C68.4406 15.8933 68.9729 16.5603 69.6924 16.9576Z" fill="url(#paint9_linear)"/>
<path d="M88.3922 40.4925C88.5884 41.1239 88.9815 41.676 89.514 42.0679C90.0465 42.4599 90.6904 42.6712 91.3516 42.6709C91.662 42.6717 91.9708 42.6251 92.2672 42.5327C92.656 42.4127 93.0174 42.2173 93.3306 41.9575C93.6439 41.6978 93.9029 41.3789 94.0928 41.0191C94.2828 40.6592 94.4 40.2654 94.4377 39.8603C94.4754 39.4551 94.433 39.0465 94.3127 38.6577C92.5052 33.4125 89.9021 28.4763 86.5946 24.0221C86.3524 23.6947 86.0481 23.4183 85.699 23.2085C85.35 22.9988 84.963 22.8599 84.5603 22.7997C84.1575 22.7395 83.7469 22.7592 83.3517 22.8577C82.9566 22.9563 82.5847 23.1316 82.2574 23.3739C81.9301 23.6161 81.6536 23.9204 81.4439 24.2695C81.2342 24.6185 81.0952 25.0055 81.035 25.4082C80.9748 25.811 80.9946 26.2216 81.0931 26.6168C81.1916 27.0119 81.367 27.3837 81.6092 27.7111C84.4926 31.6109 86.7787 35.9187 88.3922 40.4925Z" fill="url(#paint10_linear)"/>
<defs>
<linearGradient id="paint0_linear" x1="103.293" y1="125.322" x2="69.8724" y2="107.149" gradientUnits="userSpaceOnUse">
<stop stop-color="#F12711"/>
<stop offset="1" stop-color="#F5AF19"/>
</linearGradient>
<linearGradient id="paint1_linear" x1="107.068" y1="85.7403" x2="98.2031" y2="83.3834" gradientUnits="userSpaceOnUse">
<stop stop-color="#F12711"/>
<stop offset="1" stop-color="#F5AF19"/>
</linearGradient>
<linearGradient id="paint2_linear" x1="186.327" y1="210.558" x2="-10.4659" y2="67.1569" gradientUnits="userSpaceOnUse">
<stop stop-color="#F12711"/>
<stop offset="1" stop-color="#F5AF19"/>
</linearGradient>
<linearGradient id="paint3_linear" x1="167.724" y1="113.543" x2="149.067" y2="109.972" gradientUnits="userSpaceOnUse">
<stop stop-color="#F12711"/>
<stop offset="1" stop-color="#F5AF19"/>
</linearGradient>
<linearGradient id="paint4_linear" x1="152.506" y1="67.9978" x2="139.471" y2="60.6411" gradientUnits="userSpaceOnUse">
<stop stop-color="#F12711"/>
<stop offset="1" stop-color="#F5AF19"/>
</linearGradient>
<linearGradient id="paint5_linear" x1="107.662" y1="42.6708" x2="99.0001" y2="41.3278" gradientUnits="userSpaceOnUse">
<stop stop-color="#F12711"/>
<stop offset="1" stop-color="#F5AF19"/>
</linearGradient>
<linearGradient id="paint6_linear" x1="107.662" y1="13.8139" x2="99.396" y2="11.5794" gradientUnits="userSpaceOnUse">
<stop stop-color="#F12711"/>
<stop offset="1" stop-color="#F5AF19"/>
</linearGradient>
<linearGradient id="paint7_linear" x1="141.011" y1="21.0734" x2="129.972" y2="13.2815" gradientUnits="userSpaceOnUse">
<stop stop-color="#F12711"/>
<stop offset="1" stop-color="#F5AF19"/>
</linearGradient>
<linearGradient id="paint8_linear" x1="128.001" y1="42.6709" x2="111.497" y2="35.9524" gradientUnits="userSpaceOnUse">
<stop stop-color="#F12711"/>
<stop offset="1" stop-color="#F5AF19"/>
</linearGradient>
<linearGradient id="paint9_linear" x1="78.4316" y1="21.0746" x2="67.3045" y2="13.1858" gradientUnits="userSpaceOnUse">
<stop stop-color="#F12711"/>
<stop offset="1" stop-color="#F5AF19"/>
</linearGradient>
<linearGradient id="paint10_linear" x1="92.9036" y1="42.6709" x2="76.3935" y2="35.9497" gradientUnits="userSpaceOnUse">
<stop stop-color="#F12711"/>
<stop offset="1" stop-color="#F5AF19"/>
</linearGradient>
</defs>
</svg>
