<svg width="86" height="86" viewBox="0 0 86 86" fill="none" xmlns="http://www.w3.org/2000/svg">
<path d="M53.504 41.928C56.232 42.2587 58.4227 43.3127 60.076 45.09C61.7293 46.8673 62.556 49.182 62.556 52.034C62.556 55.6713 61.2953 58.5853 58.774 60.776C56.2527 62.9253 52.8427 64 48.544 64H26.844V20.6H48.048C52.3053 20.6 55.674 21.6127 58.154 23.638C60.634 25.6633 61.874 28.3913 61.874 31.822C61.874 34.55 61.1093 36.8027 59.58 38.58C58.092 40.3573 56.0667 41.4733 53.504 41.928ZM43.832 28.908H39.74V38.084H43.832C45.4027 38.084 46.6427 37.6707 47.552 36.844C48.5027 36.0173 48.978 34.8807 48.978 33.434C48.978 32.0287 48.5233 30.9333 47.614 30.148C46.7047 29.3213 45.444 28.908 43.832 28.908ZM44.142 55.01C45.7953 55.01 47.0767 54.576 47.986 53.708C48.9367 52.84 49.412 51.6827 49.412 50.236C49.412 48.8307 48.9367 47.7147 47.986 46.888C47.0353 46.02 45.7747 45.586 44.204 45.586H39.74V55.01H44.142Z" fill="white"/>
<circle cx="43" cy="43" r="39.5" stroke="url(#paint0_linear)" stroke-width="7"/>
<defs>
<linearGradient id="paint0_linear" x1="76.1055" y1="86" x2="-14.1828" y2="31.6032" gradientUnits="userSpaceOnUse">
<stop stop-color="#F12711"/>
<stop offset="1" stop-color="#F5AF19"/>
</linearGradient>
</defs>
</svg>
