<svg width="158" height="211" viewBox="0 0 158 211" fill="none" xmlns="http://www.w3.org/2000/svg">
<path d="M67.0366 63.2519H51.9652C55.8776 59.9619 58.7419 55.599 60.205 50.7009C61.6682 45.8029 61.6662 40.5838 60.1994 35.6869C58.7326 30.7899 55.865 26.4292 51.9501 23.1421C48.0352 19.855 43.2441 17.7852 38.1672 17.1877V3.09928C38.1672 2.2773 37.8407 1.48899 37.2595 0.907758C36.6782 0.32653 35.8899 0 35.0679 0C34.246 0 33.4576 0.32653 32.8764 0.907758C32.2952 1.48899 31.9687 2.2773 31.9687 3.09928V17.1877C26.8918 17.7852 22.1007 19.855 18.1858 23.1421C14.2709 26.4292 11.4033 30.7899 9.9365 35.6869C8.46968 40.5838 8.46771 45.8029 9.93084 50.7009C11.394 55.599 14.2582 59.9619 18.1706 63.2519H3.09928C2.27745 63.2524 1.4894 63.5791 0.908277 64.1602C0.32715 64.7413 0.000469219 65.5294 0 66.3512V82.9226C0 83.7446 0.326528 84.5329 0.907757 85.1142C1.48898 85.6954 2.2773 86.0219 3.09928 86.0219H27.5889L2.36785 111.238C1.78742 111.819 1.46144 112.608 1.46144 113.429C1.46144 114.251 1.78742 115.039 2.36785 115.621L27.5889 140.837H3.09928C2.2773 140.837 1.48898 141.163 0.907757 141.744C0.326528 142.326 0 143.114 0 143.936V160.506C0 161.328 0.326528 162.116 0.907757 162.697C1.48898 163.278 2.2773 163.605 3.09928 163.605H31.9669V207.45C31.9669 208.272 32.2934 209.06 32.8746 209.642C33.4559 210.223 34.2442 210.549 35.0662 210.549C35.8881 210.549 36.6765 210.223 37.2577 209.642C37.8389 209.06 38.1655 208.272 38.1655 207.45V163.605H67.0331C67.855 163.605 68.6434 163.278 69.2246 162.697C69.8058 162.116 70.1323 161.328 70.1323 160.506V143.936C70.1323 143.114 69.8058 142.326 69.2246 141.744C68.6434 141.163 67.855 140.837 67.0331 140.837H42.5505L67.7663 115.621C68.0543 115.333 68.2828 114.992 68.4387 114.616C68.5946 114.24 68.6749 113.836 68.6749 113.429C68.6749 113.022 68.5946 112.619 68.4387 112.243C68.2828 111.867 68.0543 111.525 67.7663 111.238L42.5487 86.0219H67.0366C67.8586 86.0219 68.6469 85.6954 69.2281 85.1142C69.8093 84.5329 70.1359 83.7446 70.1359 82.9226V66.3512C70.1354 65.5294 69.8087 64.7413 69.2276 64.1602C68.6465 63.5791 67.8584 63.2524 67.0366 63.2519ZM63.9373 157.406H6.20211V147.035H63.9373V157.406ZM35.0697 139.555L8.94364 113.421L35.0679 87.3041L61.1922 113.421L35.0697 139.555ZM15.0342 43.2182C15.0342 39.2559 16.2091 35.3825 18.4105 32.088C20.6118 28.7935 23.7407 26.2257 27.4014 24.7094C31.062 23.1931 35.0902 22.7963 38.9763 23.5693C42.8625 24.3424 46.4322 26.2504 49.2339 29.0522C52.0357 31.8539 53.9438 35.4236 54.7168 39.3098C55.4898 43.1959 55.093 47.2241 53.5767 50.8848C52.0604 54.5455 49.4926 57.6743 46.1981 59.8756C42.9036 62.077 39.0302 63.2519 35.0679 63.2519C29.7565 63.2458 24.6644 61.1332 20.9087 57.3774C17.1529 53.6217 15.0403 48.5296 15.0342 43.2182ZM63.9373 79.8234H6.20211V69.4505H63.9373V79.8234Z" fill="url(#paint0_linear)"/>
<path d="M157.897 82.9226V66.3512C157.897 65.5292 157.57 64.7409 156.989 64.1597C156.408 63.5785 155.62 63.2519 154.798 63.2519H139.726C143.639 59.9619 146.503 55.599 147.966 50.7009C149.429 45.8029 149.427 40.5838 147.96 35.6869C146.493 30.7899 143.626 26.4292 139.711 23.1421C135.796 19.855 131.005 17.7852 125.928 17.1877V3.09928C125.928 2.2773 125.602 1.48899 125.02 0.907758C124.439 0.32653 123.651 0 122.829 0C122.007 0 121.219 0.32653 120.637 0.907758C120.056 1.48899 119.73 2.2773 119.73 3.09928V17.1877C114.653 17.7855 109.862 19.8555 105.947 23.1427C102.033 26.4299 99.1653 30.7907 97.6987 35.6876C96.2321 40.5844 96.2303 45.8034 97.6935 50.7013C99.1567 55.5992 102.021 59.962 105.933 63.2519H90.862C90.04 63.2519 89.2517 63.5785 88.6705 64.1597C88.0892 64.7409 87.7627 65.5292 87.7627 66.3512V82.9226C87.7625 83.3297 87.8425 83.7328 87.9981 84.109C88.1538 84.4851 88.3821 84.8268 88.6699 85.1147C88.9578 85.4025 89.2995 85.6308 89.6757 85.7865C90.0518 85.9421 90.4549 86.0222 90.862 86.0219H115.348L90.1288 111.238C89.5484 111.819 89.2224 112.608 89.2224 113.429C89.2224 114.251 89.5484 115.039 90.1288 115.621L115.346 140.837H90.862C90.4549 140.837 90.0518 140.917 89.6757 141.072C89.2995 141.228 88.9578 141.456 88.6699 141.744C88.3821 142.032 88.1538 142.374 87.9981 142.75C87.8425 143.126 87.7625 143.529 87.7627 143.936V160.506C87.7625 160.913 87.8425 161.316 87.9981 161.692C88.1538 162.068 88.3821 162.41 88.6699 162.698C88.9578 162.986 89.2995 163.214 89.6757 163.369C90.0518 163.525 90.4549 163.605 90.862 163.605H119.73V207.45C119.73 208.272 120.056 209.06 120.637 209.642C121.219 210.223 122.007 210.549 122.829 210.549C123.651 210.549 124.439 210.223 125.02 209.642C125.602 209.06 125.928 208.272 125.928 207.45V163.605H154.796C155.203 163.605 155.606 163.525 155.982 163.369C156.358 163.214 156.7 162.986 156.988 162.698C157.276 162.41 157.504 162.068 157.66 161.692C157.815 161.316 157.895 160.913 157.895 160.506V143.936C157.895 143.529 157.815 143.126 157.66 142.75C157.504 142.374 157.276 142.032 156.988 141.744C156.7 141.456 156.358 141.228 155.982 141.072C155.606 140.917 155.203 140.837 154.796 140.837H130.308L155.527 115.621C155.815 115.333 156.044 114.992 156.2 114.616C156.356 114.24 156.436 113.836 156.436 113.429C156.436 113.022 156.356 112.619 156.2 112.243C156.044 111.867 155.815 111.525 155.527 111.238L130.308 86.0219H154.794C155.201 86.0226 155.605 85.943 155.981 85.7875C156.358 85.632 156.7 85.4038 156.988 85.1159C157.277 84.828 157.505 84.4861 157.661 84.1098C157.817 83.7334 157.897 83.33 157.897 82.9226ZM151.698 157.406H93.963V147.035H151.698V157.406ZM122.831 139.555L96.7028 113.421L122.829 87.3041L148.953 113.421L122.831 139.555ZM102.797 43.2182C102.797 39.2558 103.972 35.3824 106.173 32.0878C108.375 28.7933 111.504 26.2255 115.164 24.7092C118.825 23.193 122.853 22.7963 126.74 23.5695C130.626 24.3426 134.196 26.2508 136.997 29.0528C139.799 31.8547 141.707 35.4246 142.48 39.3109C143.252 43.1971 142.855 47.2253 141.339 50.886C139.822 54.5466 137.254 57.6754 133.96 59.8765C130.665 62.0776 126.791 63.2523 122.829 63.2519C117.518 63.2454 112.426 61.1325 108.671 57.3768C104.915 53.6211 102.803 48.5293 102.797 43.2182ZM151.698 79.8234H93.963V69.4505H151.698V79.8234Z" fill="url(#paint1_linear)"/>
<defs>
<linearGradient id="paint0_linear" x1="62.0666" y1="210.549" x2="-34.4082" y2="191.188" gradientUnits="userSpaceOnUse">
<stop stop-color="#F12711"/>
<stop offset="1" stop-color="#F5AF19"/>
</linearGradient>
<linearGradient id="paint1_linear" x1="149.828" y1="210.549" x2="53.3551" y2="191.189" gradientUnits="userSpaceOnUse">
<stop stop-color="#F12711"/>
<stop offset="1" stop-color="#F5AF19"/>
</linearGradient>
</defs>
</svg>
